# File created by Blade
# Date/Time:  Tue Sep 30 19:35:54 2014
#---------------------------------------------------------
:version 1.10
:name HOM
:units
  mass 1.0
  length 1.000000
  angle deg
:documentation
     Acclaim Skeleton File
:root
   axis xyz
   order TX TY TZ RX RY RZ
   position 0.000000 0.000000 0.000000
   orientation 0 0 0
:bonedata
   begin
      id 1
      name Spine_dum
      direction 0.000000 1.000000 0.000000
      length 3.241213
      axis 0.0 0.0 0.0 xyz
   end
   begin
      id 2
      name LeftUpLeg_dum
      direction 1.000000 0.000000 0.000000
      length 3.434019
      axis 0.0 0.0 0.0 xyz
   end
   begin
      id 3
      name RightUpLeg_dum
      direction -1.000000 0.000000 0.000000
      length 3.434019
      axis 0.0 0.0 0.0 xyz
   end
   begin
      id 4
      name Spine
      direction 0.000000 1.000000 0.000000
      length 0.000000
      axis 0.0 0.0 0.0 xyz
      dof rx ry rz
   end
   begin
      id 5
      name Spine_dum1
      direction 0.000000 1.000000 0.000000
      length 18.382958
      axis 0.0 0.0 0.0 xyz
   end
   begin
      id 6
      name Spine_dum2
      direction 0.000000 1.000000 0.000000
      length 12.828261
      axis 0.0 0.0 0.0 xyz
   end
   begin
      id 7
      name Spine_dum3
      direction 0.000000 1.000000 0.000000
      length 12.828261
      axis 0.0 0.0 0.0 xyz
   end
   begin
      id 8
      name Head
      direction 0.000000 1.000000 0.000000
      length 4.527550
      axis 0.0 0.0 0.0 xyz
      dof rx ry rz
   end
   begin
      id 9
      name LeftShoulder
      direction 1.000000 0.000000 0.000000
      length 7.748055
      axis 0.0 0.0 -90.0 xyz
      dof rx ry rz
   end
   begin
      id 10
      name LeftArm
      direction 1.000000 0.000000 0.000000
      length 10.635614
      axis 0.0 0.0 -90.0 xyz
      dof rx ry rz
   end
   begin
      id 11
      name LeftForeArm
      direction 1.000000 0.000000 0.000000
      length 8.346755
      axis 0.0 0.0 -90.0 xyz
      dof ry rz rx
   end
   begin
      id 12
      name LeftHand
      direction 0.000000 0.000000 0.000000
      length 0.000000
      axis 0.0 0.0 -90.0 xyz
      dof rx ry rz
   end
   begin
      id 13
      name LeftHand_dum1
      direction 0.000000 0.000000 0.000000
      length 0.000000
      axis 0.0 0.0 -90.0 xyz
   end
   begin
      id 14
      name LeftHand_dum2
      direction 1.000000 0.000000 0.000000
      length 3.937000
      axis 0.0 0.0 -90.0 xyz
   end
   begin
      id 15
      name LeftHandThumb1
      direction 0.000000 0.000000 1.000000
      length 3.937000
      axis 0.0 0.0 -90.0 xyz
      dof rx rz ry
   end
   begin
      id 16
      name RightShoulder
      direction -1.000000 0.000000 0.000000
      length 7.748055
      axis 0.0 0.0 90.0 xyz
      dof rx ry rz
   end
   begin
      id 17
      name RightArm
      direction -1.000000 0.000000 0.000000
      length 10.635614
      axis 0.0 0.0 90.0 xyz
      dof rx ry rz
   end
   begin
      id 18
      name RightForeArm
      direction -1.000000 0.000000 0.000000
      length 8.346755
      axis 0.0 0.0 90.0 xyz
      dof ry rz rx
   end
   begin
      id 19
      name RightHand
      direction 0.000000 0.000000 0.000000
      length 0.000000
      axis 0.0 0.0 90.0 xyz
      dof rx ry rz
   end
   begin
      id 20
      name RightHand_dum1
      direction 0.000000 0.000000 0.000000
      length 0.000000
      axis 0.0 0.0 90.0 xyz
   end
   begin
      id 21
      name RightHand_dum2
      direction -1.000000 0.000000 0.000000
      length 3.937000
      axis 0.0 0.0 90.0 xyz
   end
   begin
      id 22
      name RightHandThumb1
      direction 0.000000 0.000000 1.000000
      length 3.937000
      axis 0.0 0.0 90.0 xyz
      dof rx rz ry
   end
   begin
      id 23
      name LeftUpLeg
      direction 0.000000 -1.000000 0.000000
      length 15.713025
      axis 0.0 0.0 0.0 xyz
      dof rx ry rz
   end
   begin
      id 24
      name LeftLeg
      direction 0.000000 -1.000000 0.000000
      length 14.435119
      axis 0.0 0.0 0.0 xyz
      dof rx ry rz
   end
   begin
      id 25
      name LeftFoot
      direction 0.000000 -0.258819 0.965926
      length 4.938895
      axis 15.0 0.0 0.0 xyz
      dof rx ry rz
   end
   begin
      id 26
      name LeftToeBase
      direction 0.000000 0.000000 1.000000
      length 2.952750
      axis 0.0 0.0 0.0 xyz
      dof rx ry rz
   end
   begin
      id 27
      name RightUpLeg
      direction 0.000000 -1.000000 0.000000
      length 15.713025
      axis 0.0 0.0 0.0 xyz
      dof rx ry rz
   end
   begin
      id 28
      name RightLeg
      direction 0.000000 -1.000000 0.000000
      length 14.435119
      axis 0.0 0.0 0.0 xyz
      dof rx ry rz
   end
   begin
      id 29
      name RightFoot
      direction 0.000000 -0.258819 0.965926
      length 4.938895
      axis 15.0 0.0 0.0 xyz
      dof rx ry rz
   end
   begin
      id 30
      name RightToeBase
      direction 0.000000 0.000000 1.000000
      length 2.952750
      axis 0.0 0.0 0.0 xyz
      dof rx ry rz
   end
:hierarchy
   begin
      root Spine_dum LeftUpLeg_dum RightUpLeg_dum
      Spine_dum Spine
      LeftUpLeg_dum LeftUpLeg
      RightUpLeg_dum RightUpLeg
      Spine Spine_dum1 Spine_dum2 Spine_dum3
      Spine_dum1 Head
      Spine_dum2 LeftShoulder
      Spine_dum3 RightShoulder
      LeftShoulder LeftArm
      LeftArm LeftForeArm
      LeftForeArm LeftHand
      LeftHand LeftHand_dum1 LeftHand_dum2
      LeftHand_dum1 LeftHandThumb1
      RightShoulder RightArm
      RightArm RightForeArm
      RightForeArm RightHand
      RightHand RightHand_dum1 RightHand_dum2
      RightHand_dum1 RightHandThumb1
      LeftUpLeg LeftLeg
      LeftLeg LeftFoot
      LeftFoot LeftToeBase
      RightUpLeg RightLeg
      RightLeg RightFoot
      RightFoot RightToeBase
   end

# File created by Blade
# Date/Time:  Tue Sep 23 19:15:59 2014
# Frame Rate: 120.000 fps
#------------------------------------------------------
:FULLY-SPECIFIED
:DEGREES
1002
root -1.839530 35.090918 -6.012497 39.238718 5.557794 -52.990915
Spine -29.321284 -11.609596 47.565652
Head -3.479895 -14.872401 27.547886
LeftShoulder 10.713514 26.418584 40.438744
LeftArm 98.124234 15.124198 -51.198329
LeftForeArm -6.880249 -0.000000 23.215297
LeftHand 56.008750 0.000000 -18.306624
LeftHandThumb1 -26.253704 0.000000 33.147579
RightShoulder -9.127875 -46.008983 -3.101232
RightArm 52.978997 24.741943 56.049794
RightForeArm -4.473798 -0.000000 77.068472
RightHand -6.555562 -0.000000 30.754964
RightHandThumb1 -24.326973 -0.000000 -32.862282
LeftUpLeg -40.690944 26.914101 46.641167
LeftLeg 20.754006 -0.000000 -0.000000
LeftFoot -6.618717 3.392686 5.232545
LeftToeBase -5.765181 -0.000000 0.000000
RightUpLeg -78.065401 -49.886668 -54.861019
RightLeg 121.713217 -0.000000 -0.000000
RightFoot 42.142165 10.019269 -10.209149
RightToeBase 46.946712 -0.000000 -0.000000
1003
root -1.840219 35.084942 -5.990694 39.247255 5.592336 -52.970880
Spine -29.438585 -11.581261 47.590446
Head -3.305530 -14.926239 27.467817
LeftShoulder 10.841658 26.262751 40.548003
LeftArm 98.294132 15.111363 -51.086472
LeftForeArm -6.834389 -0.000000 22.794918
LeftHand 56.020553 -0.000000 -18.344024
LeftHandThumb1 -26.253704 0.000000 33.147579
RightShoulder -9.428952 -46.144991 -2.779651
RightArm 53.164830 24.907643 56.382185
RightForeArm -4.755783 0.000000 77.365328
RightHand -6.567236 -0.000000 30.832419
RightHandThumb1 -24.326973 -0.000000 -32.862282
LeftUpLeg -40.708689 26.724923 46.711502
LeftLeg 20.859894 -0.000000 -0.000000
LeftFoot -6.727960 3.641769 5.240225
LeftToeBase -5.579182 -0.000000 0.000000
RightUpLeg -77.665464 -49.864889 -55.188459
RightLeg 121.760753 -0.000000 -0.000000
RightFoot 41.983163 10.134949 -10.345896
RightToeBase 47.074527 -0.000000 -0.000000
1004
root -1.841135 35.077161 -5.969714 39.289685 5.564139 -52.924510
Spine -29.572721 -11.622312 47.642934
Head -3.081224 -14.840324 27.324430
LeftShoulder 10.847475 26.198959 40.562556
LeftArm 98.427203 15.069895 -50.863856
LeftForeArm -6.782509 0.000000 22.475938
LeftHand 55.977343 -0.000000 -18.227946
LeftHandThumb1 -26.253704 0.000000 33.147579
RightShoulder -9.464660 -46.079745 -2.749394
RightArm 53.118009 24.862676 56.705980
RightForeArm -5.137661 0.000000 77.696359
RightHand -6.607951 0.000000 30.748327
RightHandThumb1 -24.326973 -0.000000 -32.862282
LeftUpLeg -40.719966 26.541368 46.749374
LeftLeg 20.993554 -0.000000 -0.000000
LeftFoot -6.769245 3.931080 5.352421
LeftToeBase -5.713985 -0.000000 0.000000
RightUpLeg -77.417326 -49.849948 -55.480928
RightLeg 121.854377 -0.000000 -0.000000
RightFoot 41.862070 10.176432 -10.378891
RightToeBase 47.053864 -0.000000 -0.000000
1005
root -1.839337 35.068291 -5.950399 39.328617 5.517514 -52.866128
Spine -29.695607 -11.721955 47.707978
Head -2.848151 -14.661140 27.200701
LeftShoulder 10.797029 26.111826 40.545432
LeftArm 98.470945 15.093539 -50.724105
LeftForeArm -6.739617 -0.000000 22.107795
LeftHand 56.100283 -0.000000 -18.275720
LeftHandThumb1 -26.253704 0.000000 33.147579
RightShoulder -9.345894 -45.951696 -2.821388
RightArm 52.968758 24.774980 56.928135
RightForeArm -5.363033 -0.000000 78.017092
RightHand -6.599646 -0.000000 30.744013
RightHandThumb1 -24.326973 -0.000000 -32.862282
LeftUpLeg -40.747641 26.412266 46.734943
LeftLeg 21.140750 -0.000000 -0.000000
LeftFoot -6.806128 4.154293 5.488819
LeftToeBase -5.906242 -0.000000 0.000000
RightUpLeg -77.231451 -49.809477 -55.722082
RightLeg 121.981059 -0.000000 -0.000000
RightFoot 41.798957 10.189907 -10.447875
RightToeBase 47.015954 -0.000000 -0.000000
